<svg id="svg" version="1.1" xmlns="http://www.w3.org/2000/svg" xmlns:xlink="http://www.w3.org/1999/xlink" width="400" height="400" viewBox="0, 0, 400,400"><g id="svgg"><path id="path1" d="M181.200 0.128 C 181.090 0.235,179.699 0.397,178.108 0.487 C 176.517 0.577,175.092 0.774,174.941 0.925 C 174.790 1.076,173.527 1.200,172.133 1.200 C 170.711 1.200,169.600 1.375,169.600 1.600 C 169.600 1.820,168.736 2.000,167.680 2.000 C 166.624 2.000,165.589 2.163,165.380 2.361 C 165.171 2.560,164.145 2.830,163.100 2.961 C 158.319 3.562,157.600 3.703,157.600 4.040 C 157.600 4.238,156.880 4.400,156.000 4.400 C 155.120 4.400,154.400 4.580,154.400 4.800 C 154.400 5.020,153.680 5.200,152.800 5.200 C 151.920 5.200,151.200 5.380,151.200 5.600 C 151.200 5.820,150.480 6.000,149.600 6.000 C 148.720 6.000,148.000 6.180,148.000 6.400 C 148.000 6.620,147.381 6.800,146.624 6.800 C 145.867 6.800,145.136 6.980,145.000 7.200 C 144.864 7.420,144.324 7.600,143.800 7.600 C 143.276 7.600,142.736 7.780,142.600 8.000 C 142.464 8.220,142.024 8.400,141.622 8.400 C 140.929 8.400,137.520 9.333,135.800 9.995 C 135.360 10.164,134.010 10.527,132.800 10.801 C 131.590 11.075,130.296 11.565,129.925 11.889 C 129.554 12.213,129.059 12.360,128.825 12.216 C 128.591 12.071,128.400 12.143,128.400 12.376 C 128.400 12.609,127.950 12.800,127.400 12.800 C 126.850 12.800,126.399 12.935,126.397 13.100 C 126.395 13.265,125.945 13.608,125.396 13.863 C 124.642 14.213,124.462 14.213,124.658 13.863 C 124.821 13.573,124.716 13.587,124.379 13.900 C 124.082 14.175,123.516 14.400,123.120 14.400 C 122.724 14.400,122.400 14.580,122.400 14.800 C 122.400 15.020,122.040 15.200,121.600 15.200 C 121.160 15.200,120.800 15.380,120.800 15.600 C 120.800 15.820,120.440 16.000,120.000 16.000 C 119.560 16.000,119.200 16.180,119.200 16.400 C 119.200 16.620,118.840 16.800,118.400 16.800 C 117.960 16.800,117.600 16.941,117.600 17.113 C 117.600 17.285,116.745 17.674,115.700 17.978 C 114.655 18.282,113.707 18.669,113.594 18.838 C 113.228 19.381,108.742 21.600,108.008 21.600 C 107.618 21.600,107.076 21.868,106.804 22.196 C 106.532 22.523,106.177 22.709,106.015 22.609 C 105.853 22.509,105.341 22.781,104.877 23.214 C 104.413 23.646,103.745 24.000,103.393 24.000 C 103.041 24.000,102.864 24.180,103.000 24.400 C 103.211 24.742,102.694 24.893,101.745 24.766 C 101.604 24.747,101.379 24.896,101.245 25.096 C 101.110 25.296,99.965 25.979,98.700 26.614 C 97.435 27.248,96.400 27.910,96.400 28.084 C 96.400 28.258,96.164 28.400,95.875 28.400 C 95.587 28.400,94.964 28.760,94.492 29.200 C 94.020 29.640,93.512 30.000,93.364 30.000 C 93.215 30.000,92.803 30.320,92.447 30.710 C 92.091 31.101,90.631 32.035,89.202 32.786 C 87.773 33.537,86.254 34.477,85.827 34.876 C 85.399 35.274,84.853 35.600,84.613 35.600 C 84.373 35.600,83.917 35.960,83.600 36.400 C 83.283 36.840,82.793 37.200,82.512 37.200 C 82.230 37.200,82.000 37.380,82.000 37.600 C 82.000 37.820,81.802 38.000,81.560 38.000 C 81.319 38.000,80.644 38.495,80.060 39.100 C 79.477 39.705,78.511 40.452,77.914 40.760 C 77.316 41.068,76.914 41.460,77.019 41.631 C 77.125 41.802,76.849 42.057,76.406 42.198 C 75.963 42.339,75.600 42.622,75.600 42.827 C 75.600 43.032,75.317 43.200,74.971 43.200 C 74.626 43.200,74.101 43.425,73.806 43.700 C 73.511 43.975,72.743 44.602,72.099 45.094 C 71.456 45.585,69.830 47.025,68.487 48.294 C 67.143 49.562,65.539 51.007,64.922 51.506 C 62.304 53.618,62.027 53.894,62.274 54.141 C 62.417 54.283,62.223 54.400,61.843 54.400 C 61.463 54.400,61.264 54.580,61.400 54.800 C 61.536 55.020,61.356 55.200,61.000 55.200 C 60.644 55.200,60.456 55.367,60.582 55.571 C 60.708 55.775,60.449 56.057,60.006 56.198 C 59.563 56.339,59.200 56.584,59.200 56.744 C 59.200 57.236,56.480 59.946,56.233 59.699 C 56.105 59.571,56.000 59.797,56.000 60.200 C 56.000 60.603,55.889 60.822,55.752 60.686 C 55.449 60.382,54.400 61.379,54.400 61.971 C 54.400 62.207,54.235 62.400,54.034 62.400 C 53.624 62.400,52.520 63.540,48.417 68.199 C 46.868 69.958,45.600 71.551,45.600 71.738 C 45.600 71.926,45.094 72.556,44.475 73.140 C 43.856 73.723,43.008 74.785,42.589 75.501 C 42.170 76.216,41.506 76.903,41.113 77.027 C 40.488 77.226,40.200 77.935,40.353 78.900 C 40.379 79.065,40.119 79.200,39.776 79.200 C 39.433 79.200,39.256 79.367,39.382 79.571 C 39.508 79.775,39.246 80.058,38.800 80.200 C 38.354 80.342,38.092 80.626,38.220 80.832 C 38.347 81.037,38.169 81.314,37.825 81.446 C 37.481 81.578,37.200 81.854,37.200 82.060 C 37.200 82.265,36.840 82.820,36.400 83.292 C 35.960 83.764,35.600 84.477,35.600 84.875 C 35.600 85.274,35.333 85.600,35.008 85.600 C 34.682 85.600,34.292 86.090,34.142 86.688 C 33.992 87.286,33.449 88.230,32.935 88.784 C 32.421 89.338,32.000 89.916,32.000 90.067 C 32.000 90.219,31.764 90.581,31.476 90.871 C 30.519 91.837,27.566 96.499,27.777 96.711 C 27.892 96.825,27.601 97.252,27.132 97.659 C 26.662 98.067,26.423 98.400,26.601 98.400 C 26.779 98.400,26.640 98.715,26.292 99.100 C 25.321 100.176,23.200 104.388,23.200 105.241 C 23.200 105.658,23.020 106.000,22.800 106.000 C 22.580 106.000,22.400 106.360,22.400 106.800 C 22.400 107.240,22.254 107.600,22.075 107.600 C 21.896 107.600,21.502 108.230,21.200 109.000 C 20.898 109.770,20.504 110.400,20.325 110.400 C 20.146 110.400,20.000 110.646,20.000 110.946 C 20.000 111.246,19.640 111.950,19.200 112.509 C 18.760 113.069,18.400 113.843,18.400 114.230 C 18.400 114.617,18.273 114.806,18.118 114.651 C 17.963 114.496,17.511 115.321,17.113 116.485 C 16.716 117.648,16.281 118.915,16.148 119.300 C 16.016 119.685,15.748 120.000,15.553 120.000 C 15.359 120.000,15.200 120.360,15.200 120.800 C 15.200 121.240,15.041 121.600,14.847 121.600 C 14.652 121.600,14.397 122.005,14.279 122.500 C 13.898 124.100,12.610 127.393,12.266 127.645 C 12.082 127.779,11.947 128.004,11.966 128.145 C 12.021 128.555,11.870 129.070,11.270 130.518 C 11.015 131.132,10.701 132.122,10.572 132.718 C 10.443 133.313,10.187 134.160,10.002 134.600 C 9.286 136.306,8.819 138.106,9.011 138.418 C 9.122 138.598,9.030 138.858,8.807 138.996 C 8.583 139.134,8.400 139.676,8.400 140.200 C 8.400 140.724,8.220 141.264,8.000 141.400 C 7.780 141.536,7.600 142.087,7.600 142.624 C 7.600 143.161,7.420 143.600,7.200 143.600 C 6.980 143.600,6.800 144.331,6.800 145.224 C 6.800 146.204,6.642 146.749,6.400 146.600 C 6.158 146.451,6.000 146.996,6.000 147.976 C 6.000 148.869,5.820 149.600,5.600 149.600 C 5.380 149.600,5.200 150.129,5.200 150.776 C 5.200 151.423,5.020 152.064,4.800 152.200 C 4.580 152.336,4.400 153.056,4.400 153.800 C 4.400 154.544,4.220 155.264,4.000 155.400 C 3.780 155.536,3.600 156.256,3.600 157.000 C 3.600 157.744,3.456 158.442,3.280 158.551 C 3.104 158.660,2.914 159.525,2.858 160.474 C 2.803 161.423,2.587 162.371,2.379 162.580 C 2.170 162.789,2.000 164.004,2.000 165.280 C 2.000 166.556,1.838 167.600,1.640 167.600 C 1.286 167.600,1.098 168.687,0.503 174.200 C 0.109 177.846,0.109 222.154,0.503 225.800 C 1.113 231.445,1.293 232.608,1.619 233.012 C 1.802 233.239,1.995 234.364,2.048 235.512 C 2.100 236.661,2.291 237.600,2.471 237.600 C 2.652 237.600,2.800 238.399,2.800 239.376 C 2.800 240.353,2.980 241.264,3.200 241.400 C 3.420 241.536,3.600 242.256,3.600 243.000 C 3.600 243.744,3.780 244.464,4.000 244.600 C 4.220 244.736,4.400 245.456,4.400 246.200 C 4.400 246.944,4.580 247.664,4.800 247.800 C 5.020 247.936,5.200 248.577,5.200 249.224 C 5.200 249.871,5.380 250.400,5.600 250.400 C 5.820 250.400,6.000 251.131,6.000 252.024 C 6.000 253.004,6.158 253.549,6.400 253.400 C 6.642 253.251,6.800 253.796,6.800 254.776 C 6.800 255.669,6.980 256.400,7.200 256.400 C 7.420 256.400,7.600 256.839,7.600 257.376 C 7.600 257.913,7.780 258.464,8.000 258.600 C 8.220 258.736,8.400 259.377,8.400 260.024 C 8.400 260.671,8.591 261.200,8.824 261.200 C 9.057 261.200,9.152 261.354,9.036 261.541 C 8.826 261.881,9.392 263.968,10.054 265.295 C 10.244 265.677,10.400 266.250,10.400 266.569 C 10.400 266.887,10.610 267.655,10.866 268.274 C 11.123 268.893,11.371 269.535,11.416 269.700 C 11.462 269.865,11.536 270.045,11.580 270.100 C 11.624 270.155,11.741 270.642,11.840 271.183 C 11.939 271.723,12.164 272.263,12.340 272.383 C 12.515 272.502,12.896 273.460,13.184 274.510 C 13.473 275.561,13.865 276.517,14.055 276.634 C 14.245 276.751,14.400 277.197,14.400 277.624 C 14.400 278.051,14.580 278.400,14.800 278.400 C 15.020 278.400,15.200 278.760,15.200 279.200 C 15.200 279.640,15.380 280.000,15.600 280.000 C 15.820 280.000,16.000 280.239,16.000 280.532 C 16.000 280.825,16.441 281.936,16.981 283.002 C 17.520 284.067,17.852 285.115,17.719 285.331 C 17.584 285.550,17.681 285.597,17.938 285.438 C 18.222 285.263,18.403 285.432,18.409 285.876 C 18.414 286.274,18.770 287.050,19.200 287.600 C 19.630 288.150,19.986 288.825,19.991 289.100 C 19.996 289.375,20.180 289.600,20.400 289.600 C 20.620 289.600,20.800 289.960,20.800 290.400 C 20.800 290.840,20.980 291.200,21.200 291.200 C 21.420 291.200,21.600 291.526,21.600 291.925 C 21.600 292.323,21.960 293.036,22.400 293.508 C 22.840 293.980,23.200 294.619,23.200 294.927 C 23.200 295.732,25.665 300.400,26.090 300.400 C 26.287 300.400,26.336 300.580,26.200 300.800 C 26.064 301.020,26.154 301.200,26.400 301.200 C 26.646 301.200,26.748 301.361,26.626 301.558 C 26.504 301.755,26.674 302.019,27.002 302.146 C 27.331 302.272,27.600 302.653,27.600 302.993 C 27.600 303.685,28.258 304.927,29.285 306.170 C 29.662 306.627,29.968 307.144,29.965 307.321 C 29.963 307.498,30.509 308.155,31.180 308.782 C 31.851 309.408,32.400 310.169,32.400 310.472 C 32.400 310.775,32.760 311.283,33.200 311.600 C 33.640 311.917,34.000 312.464,34.000 312.816 C 34.000 313.351,36.065 316.497,37.588 318.283 C 37.815 318.549,38.000 318.853,38.000 318.958 C 38.000 319.064,38.540 319.742,39.200 320.464 C 39.860 321.187,40.400 321.996,40.400 322.262 C 40.400 322.528,40.760 322.860,41.200 323.000 C 41.640 323.140,42.000 323.480,42.000 323.755 C 42.000 324.031,42.810 325.102,43.800 326.135 C 44.790 327.169,45.600 328.191,45.600 328.407 C 45.600 328.623,45.780 328.800,46.000 328.800 C 46.220 328.800,46.400 328.988,46.400 329.217 C 46.400 329.645,48.685 332.294,50.300 333.739 C 50.795 334.182,51.200 334.662,51.200 334.806 C 51.200 335.313,56.288 340.379,56.542 340.124 C 56.684 339.983,56.800 340.155,56.800 340.506 C 56.800 340.858,57.131 341.251,57.536 341.380 C 57.941 341.508,58.526 342.091,58.836 342.674 C 59.146 343.258,60.102 344.245,60.960 344.868 C 61.818 345.490,62.395 346.000,62.242 346.000 C 62.089 346.000,62.978 346.990,64.218 348.200 C 65.457 349.410,66.653 350.400,66.875 350.400 C 67.097 350.400,68.161 351.301,69.240 352.402 C 70.318 353.503,71.200 354.305,71.200 354.184 C 71.200 354.063,71.625 354.377,72.145 354.882 C 72.664 355.387,73.500 356.070,74.000 356.400 C 74.501 356.730,75.407 357.405,76.013 357.900 C 76.620 358.395,77.325 358.800,77.581 358.800 C 77.838 358.800,77.936 358.980,77.800 359.200 C 77.583 359.551,77.836 359.664,78.630 359.574 C 78.757 359.559,79.162 359.883,79.530 360.293 C 79.899 360.703,80.830 361.478,81.600 362.016 C 82.370 362.554,83.630 363.592,84.400 364.322 C 85.170 365.052,86.292 365.751,86.894 365.874 C 87.495 365.997,87.913 366.217,87.822 366.364 C 87.732 366.510,88.230 366.879,88.929 367.183 C 89.628 367.487,90.290 367.844,90.400 367.977 C 90.945 368.635,98.097 373.194,100.200 374.224 C 101.520 374.871,102.693 375.522,102.806 375.672 C 103.230 376.231,107.710 378.400,108.441 378.400 C 108.858 378.400,109.200 378.580,109.200 378.800 C 109.200 379.020,109.571 379.200,110.024 379.200 C 110.477 379.200,110.736 379.380,110.600 379.600 C 110.459 379.828,110.804 380.000,111.400 380.000 C 111.996 380.000,112.341 380.172,112.200 380.400 C 112.064 380.620,112.216 380.800,112.539 380.800 C 113.222 380.800,116.538 382.460,116.733 382.900 C 116.807 383.065,117.392 383.200,118.033 383.200 C 118.675 383.200,119.200 383.358,119.200 383.551 C 119.200 383.745,119.785 384.128,120.500 384.402 C 123.383 385.509,124.000 385.808,124.000 386.098 C 124.000 386.264,124.272 386.400,124.604 386.400 C 124.937 386.400,125.972 386.748,126.904 387.173 C 129.201 388.219,132.066 389.137,134.000 389.446 C 134.880 389.587,135.600 389.859,135.600 390.051 C 135.600 390.243,136.140 390.400,136.800 390.400 C 137.460 390.400,138.000 390.559,138.000 390.754 C 138.000 390.949,138.987 391.231,140.194 391.382 C 141.400 391.533,142.491 391.823,142.617 392.028 C 142.744 392.233,143.287 392.400,143.824 392.400 C 144.361 392.400,144.800 392.580,144.800 392.800 C 144.800 393.020,145.520 393.200,146.400 393.200 C 147.280 393.200,148.000 393.380,148.000 393.600 C 148.000 393.820,148.540 394.000,149.200 394.000 C 149.860 394.000,150.400 394.180,150.400 394.400 C 150.400 394.620,151.120 394.800,152.000 394.800 C 152.880 394.800,153.600 394.943,153.600 395.118 C 153.600 395.293,154.270 395.482,155.088 395.537 C 155.906 395.592,156.671 395.770,156.788 395.933 C 156.905 396.096,157.720 396.282,158.600 396.347 C 159.480 396.412,160.371 396.631,160.580 396.833 C 160.789 397.035,161.723 397.200,162.656 397.200 C 163.589 397.200,164.443 397.346,164.553 397.524 C 164.663 397.702,165.586 397.891,166.603 397.944 C 167.620 397.996,168.902 398.211,169.452 398.420 C 170.002 398.629,171.240 398.800,172.202 398.800 C 173.165 398.800,174.048 398.955,174.165 399.144 C 174.749 400.089,224.561 400.131,225.800 399.187 C 226.020 399.019,227.100 398.783,228.200 398.663 C 229.300 398.542,231.328 398.322,232.706 398.173 C 234.085 398.025,235.311 397.745,235.430 397.551 C 235.549 397.358,236.436 397.200,237.400 397.200 C 238.364 397.200,239.252 397.039,239.374 396.842 C 239.582 396.506,240.610 396.295,244.699 395.747 C 245.633 395.622,246.297 395.358,246.175 395.160 C 245.992 394.864,248.191 394.578,249.300 394.753 C 249.465 394.779,249.600 394.620,249.600 394.400 C 249.600 394.180,250.140 394.000,250.800 394.000 C 251.460 394.000,252.000 393.820,252.000 393.600 C 252.000 393.380,252.720 393.200,253.600 393.200 C 254.480 393.200,255.200 393.020,255.200 392.800 C 255.200 392.580,255.740 392.400,256.400 392.400 C 257.060 392.400,257.600 392.233,257.600 392.029 C 257.600 391.825,258.590 391.534,259.800 391.383 C 261.010 391.232,262.000 390.949,262.000 390.754 C 262.000 390.559,262.525 390.400,263.167 390.400 C 263.808 390.400,264.393 390.222,264.467 390.003 C 264.540 389.785,265.095 389.566,265.700 389.516 C 266.305 389.466,266.800 389.305,266.800 389.157 C 266.800 389.010,267.025 388.908,267.300 388.930 C 268.061 388.994,271.195 388.046,273.100 387.176 C 276.171 385.774,278.180 384.902,279.500 384.399 C 280.215 384.126,280.800 383.745,280.800 383.551 C 280.800 383.358,281.239 383.200,281.776 383.200 C 282.313 383.200,282.864 383.020,283.000 382.800 C 283.136 382.580,283.597 382.400,284.024 382.400 C 284.451 382.400,284.800 382.220,284.800 382.000 C 284.800 381.780,285.160 381.600,285.600 381.600 C 286.040 381.600,286.400 381.420,286.400 381.200 C 286.400 380.980,286.760 380.800,287.200 380.800 C 287.640 380.800,288.000 380.620,288.000 380.400 C 288.000 380.180,288.371 380.000,288.824 380.000 C 289.277 380.000,289.536 379.820,289.400 379.600 C 289.264 379.380,289.436 379.200,289.782 379.200 C 290.128 379.200,290.723 379.036,291.105 378.835 C 291.487 378.634,292.836 377.990,294.102 377.405 C 295.368 376.819,296.628 376.128,296.902 375.870 C 297.176 375.611,298.255 374.997,299.300 374.505 C 300.345 374.013,301.200 373.413,301.200 373.172 C 301.200 372.931,301.421 372.807,301.691 372.897 C 301.962 372.987,302.367 372.909,302.591 372.722 C 302.816 372.536,304.170 371.645,305.600 370.743 C 307.030 369.840,308.260 368.944,308.333 368.751 C 308.407 368.558,308.722 368.400,309.033 368.400 C 309.345 368.400,309.600 368.220,309.600 368.000 C 309.600 367.780,309.881 367.600,310.224 367.600 C 310.567 367.600,310.733 367.416,310.594 367.190 C 310.455 366.965,310.489 366.806,310.670 366.837 C 311.530 366.987,312.425 366.764,312.230 366.449 C 312.111 366.255,312.505 365.993,313.106 365.866 C 313.708 365.738,315.023 364.861,316.029 363.917 C 317.035 362.973,318.082 362.151,318.356 362.091 C 318.630 362.031,319.286 361.550,319.814 361.022 C 320.342 360.494,321.143 359.945,321.593 359.802 C 322.043 359.659,322.308 359.375,322.182 359.171 C 322.056 358.967,322.155 358.800,322.403 358.800 C 322.790 358.800,324.678 357.534,326.280 356.200 C 326.545 355.980,327.323 355.350,328.010 354.800 C 328.696 354.250,330.048 353.037,331.013 352.105 C 331.979 351.173,332.972 350.363,333.221 350.305 C 333.752 350.182,337.942 346.267,337.767 346.058 C 337.702 345.979,338.392 345.349,339.300 344.656 C 340.208 343.964,340.955 343.218,340.960 342.999 C 340.973 342.428,342.543 340.873,342.900 341.076 C 343.065 341.170,343.200 340.967,343.200 340.624 C 343.200 340.281,343.347 340.000,343.526 340.000 C 343.971 340.000,348.259 335.814,350.082 333.600 C 350.897 332.610,352.202 331.082,352.982 330.204 C 353.762 329.327,354.400 328.479,354.400 328.320 C 354.400 328.065,355.808 326.430,358.700 323.329 C 359.195 322.798,359.600 322.211,359.600 322.024 C 359.600 321.837,360.140 321.107,360.800 320.400 C 361.460 319.693,362.000 319.037,362.000 318.941 C 362.000 318.845,362.185 318.549,362.412 318.283 C 363.826 316.625,366.000 313.370,366.000 312.911 C 366.000 312.612,366.360 311.980,366.800 311.508 C 367.240 311.036,367.600 310.402,367.600 310.101 C 367.600 309.799,367.780 309.664,368.000 309.800 C 368.220 309.936,368.400 309.767,368.400 309.424 C 368.400 309.081,368.580 308.800,368.800 308.800 C 369.020 308.800,369.200 308.519,369.200 308.176 C 369.200 307.833,369.380 307.664,369.600 307.800 C 369.820 307.936,370.000 307.801,370.000 307.499 C 370.000 307.198,370.315 306.593,370.700 306.155 C 371.680 305.041,372.400 303.716,372.400 303.025 C 372.400 302.703,372.655 302.296,372.968 302.120 C 373.280 301.944,373.595 301.530,373.668 301.200 C 373.740 300.870,373.922 300.507,374.072 300.394 C 374.553 300.029,376.800 295.539,376.800 294.943 C 376.800 294.626,377.160 293.980,377.600 293.508 C 378.040 293.036,378.400 292.323,378.400 291.925 C 378.400 291.526,378.580 291.200,378.800 291.200 C 379.020 291.200,379.200 290.840,379.200 290.400 C 379.200 289.960,379.380 289.600,379.600 289.600 C 379.820 289.600,380.000 289.330,380.000 289.000 C 380.000 288.670,380.135 288.399,380.300 288.397 C 380.665 288.393,381.600 286.451,381.600 285.697 C 381.600 285.398,381.780 285.264,382.000 285.400 C 382.220 285.536,382.400 285.364,382.400 285.018 C 382.400 284.672,382.580 284.032,382.800 283.595 C 383.020 283.158,383.380 282.442,383.600 282.005 C 383.820 281.568,384.000 280.938,384.000 280.605 C 384.000 280.272,384.180 280.000,384.400 280.000 C 384.620 280.000,384.800 279.651,384.800 279.224 C 384.800 278.797,384.980 278.336,385.200 278.200 C 385.420 278.064,385.600 277.513,385.600 276.976 C 385.600 276.439,385.756 276.000,385.946 276.000 C 386.218 276.000,388.070 271.700,388.186 270.800 C 388.201 270.690,388.341 270.398,388.498 270.152 C 388.655 269.905,389.045 268.735,389.365 267.552 C 389.684 266.368,390.318 264.369,390.773 263.110 C 391.228 261.850,391.600 260.376,391.600 259.834 C 391.600 259.291,391.780 258.736,392.000 258.600 C 392.220 258.464,392.400 257.913,392.400 257.376 C 392.400 256.839,392.580 256.400,392.800 256.400 C 393.020 256.400,393.200 255.770,393.200 255.000 C 393.200 254.230,393.380 253.600,393.600 253.600 C 393.820 253.600,394.000 252.880,394.000 252.000 C 394.000 251.120,394.180 250.400,394.400 250.400 C 394.620 250.400,394.800 249.871,394.800 249.224 C 394.800 248.577,394.980 247.936,395.200 247.800 C 395.420 247.664,395.600 246.944,395.600 246.200 C 395.600 245.456,395.780 244.736,396.000 244.600 C 396.220 244.464,396.400 243.744,396.400 243.000 C 396.400 242.256,396.580 241.536,396.800 241.400 C 397.020 241.264,397.200 240.353,397.200 239.376 C 397.200 238.399,397.380 237.600,397.600 237.600 C 397.820 237.600,398.000 236.646,398.000 235.480 C 398.000 234.314,398.163 233.189,398.361 232.980 C 398.560 232.771,398.829 231.700,398.959 230.600 C 399.089 229.500,399.331 227.700,399.495 226.600 C 400.157 222.178,399.845 172.611,399.147 171.164 C 398.978 170.814,398.795 169.767,398.740 168.838 C 398.685 167.909,398.496 167.060,398.320 166.951 C 398.144 166.842,398.000 165.874,398.000 164.800 C 398.000 163.726,397.820 162.736,397.600 162.600 C 397.380 162.464,397.200 161.564,397.200 160.600 C 397.200 159.636,397.020 158.736,396.800 158.600 C 396.580 158.464,396.400 157.744,396.400 157.000 C 396.400 156.256,396.220 155.536,396.000 155.400 C 395.780 155.264,395.600 154.544,395.600 153.800 C 395.600 153.056,395.420 152.336,395.200 152.200 C 394.980 152.064,394.800 151.423,394.800 150.776 C 394.800 150.129,394.620 149.600,394.400 149.600 C 394.180 149.600,394.000 148.981,394.000 148.224 C 394.000 147.467,393.820 146.736,393.600 146.600 C 393.380 146.464,393.200 145.733,393.200 144.976 C 393.200 144.219,393.020 143.600,392.800 143.600 C 392.580 143.600,392.400 143.161,392.400 142.624 C 392.400 142.087,392.240 141.548,392.044 141.427 C 391.849 141.306,391.595 140.621,391.480 139.904 C 391.162 137.911,390.982 137.249,390.678 136.945 C 390.525 136.792,390.400 136.257,390.400 135.757 C 390.400 135.257,390.244 134.751,390.054 134.633 C 389.864 134.516,389.609 133.830,389.489 133.110 C 389.369 132.389,389.045 131.260,388.769 130.600 C 388.493 129.940,388.249 129.310,388.227 129.200 C 388.206 129.090,388.045 128.775,387.870 128.500 C 387.696 128.225,387.698 127.997,387.876 127.994 C 388.054 127.991,388.013 127.856,387.784 127.694 C 387.555 127.532,387.166 126.770,386.920 126.000 C 386.281 124.000,385.434 121.834,385.200 121.600 C 384.722 121.122,384.000 119.561,384.000 119.005 C 384.000 118.672,383.820 118.400,383.600 118.400 C 383.380 118.400,383.200 117.961,383.200 117.424 C 383.200 116.887,383.020 116.336,382.800 116.200 C 382.580 116.064,382.400 115.593,382.400 115.153 C 382.400 114.713,382.247 114.447,382.060 114.563 C 381.872 114.679,381.484 114.059,381.196 113.187 C 380.908 112.314,380.521 111.600,380.336 111.600 C 380.151 111.600,380.000 111.330,380.000 111.000 C 380.000 110.670,379.854 110.400,379.675 110.400 C 379.496 110.400,379.102 109.770,378.800 109.000 C 378.498 108.230,378.104 107.600,377.925 107.600 C 377.746 107.600,377.600 107.240,377.600 106.800 C 377.600 106.360,377.420 106.000,377.200 106.000 C 376.980 106.000,376.800 105.671,376.800 105.268 C 376.800 104.369,375.316 101.382,374.105 99.843 C 373.613 99.218,373.309 98.547,373.429 98.353 C 373.549 98.159,373.460 98.000,373.231 98.000 C 373.002 98.000,372.706 97.563,372.572 97.029 C 372.438 96.496,371.984 95.748,371.564 95.367 C 371.144 94.987,370.793 94.479,370.784 94.238 C 370.775 93.997,370.235 93.177,369.584 92.415 C 368.933 91.653,368.400 90.825,368.400 90.574 C 368.400 90.324,367.860 89.554,367.200 88.863 C 366.540 88.172,366.000 87.371,366.000 87.082 C 366.000 86.536,363.641 83.100,363.106 82.867 C 362.938 82.793,362.800 82.478,362.800 82.167 C 362.800 81.855,362.620 81.600,362.400 81.600 C 362.180 81.600,362.000 81.342,362.000 81.027 C 362.000 80.712,361.637 80.339,361.194 80.198 C 360.751 80.057,360.492 79.775,360.618 79.571 C 360.744 79.367,360.605 79.200,360.309 79.200 C 360.013 79.200,359.746 78.872,359.715 78.470 C 359.685 78.069,359.062 77.092,358.330 76.299 C 354.841 72.518,354.400 71.999,354.400 71.671 C 354.400 71.477,353.365 70.185,352.100 68.800 C 350.835 67.414,349.538 65.902,349.219 65.440 C 348.481 64.374,346.407 62.400,346.025 62.400 C 345.866 62.400,345.498 61.956,345.207 61.414 C 344.917 60.871,344.527 60.522,344.340 60.637 C 344.153 60.753,344.000 60.537,344.000 60.157 C 344.000 59.777,343.896 59.571,343.769 59.697 C 343.505 59.962,341.200 57.661,341.200 57.132 C 341.200 56.940,340.756 56.580,340.213 56.333 C 339.669 56.085,339.320 55.729,339.436 55.542 C 339.552 55.354,339.356 55.200,339.000 55.200 C 338.644 55.200,338.464 55.020,338.600 54.800 C 338.736 54.580,338.537 54.400,338.157 54.400 C 337.777 54.400,337.578 54.289,337.713 54.154 C 337.849 54.018,336.934 53.076,335.680 52.060 C 334.426 51.045,332.545 49.364,331.500 48.326 C 330.455 47.288,329.600 46.535,329.600 46.653 C 329.600 46.772,328.984 46.268,328.232 45.534 C 326.420 43.767,325.705 43.200,325.289 43.200 C 325.099 43.200,324.208 42.570,323.308 41.800 C 322.409 41.030,321.549 40.400,321.397 40.400 C 321.245 40.400,320.617 39.860,320.000 39.200 C 319.383 38.540,318.681 38.000,318.440 38.000 C 318.198 38.000,318.000 37.820,318.000 37.600 C 318.000 37.380,317.730 37.200,317.400 37.200 C 317.070 37.200,316.800 37.062,316.800 36.894 C 316.800 36.726,316.080 36.144,315.200 35.600 C 314.320 35.056,313.600 34.504,313.600 34.374 C 313.600 34.243,312.700 33.715,311.600 33.200 C 310.500 32.685,309.600 32.114,309.600 31.932 C 309.600 31.749,309.364 31.600,309.075 31.600 C 308.787 31.600,308.164 31.240,307.692 30.800 C 307.220 30.360,306.728 30.000,306.600 30.000 C 306.472 30.000,305.987 29.646,305.523 29.214 C 305.059 28.781,304.525 28.523,304.337 28.639 C 304.148 28.756,303.897 28.596,303.777 28.285 C 303.658 27.974,302.490 27.198,301.181 26.560 C 299.873 25.922,298.801 25.265,298.801 25.100 C 298.800 24.935,298.440 24.800,298.000 24.800 C 297.560 24.800,297.200 24.620,297.200 24.400 C 297.200 24.180,296.840 24.000,296.400 24.000 C 295.960 24.000,295.600 23.853,295.600 23.674 C 295.600 23.208,292.469 21.600,291.562 21.600 C 291.143 21.600,290.800 21.420,290.800 21.200 C 290.800 20.980,290.566 20.800,290.280 20.800 C 289.544 20.800,287.607 19.859,287.603 19.500 C 287.601 19.335,287.330 19.200,287.000 19.200 C 286.670 19.200,286.400 19.020,286.400 18.800 C 286.400 18.580,285.961 18.400,285.424 18.400 C 284.887 18.400,284.336 18.220,284.200 18.000 C 284.064 17.780,283.603 17.600,283.176 17.600 C 282.749 17.600,282.400 17.420,282.400 17.200 C 282.400 16.980,282.040 16.800,281.600 16.800 C 281.160 16.800,280.800 16.620,280.800 16.400 C 280.800 16.180,280.528 16.000,280.195 16.000 C 279.497 16.000,277.938 15.188,277.506 14.600 C 277.344 14.380,277.209 14.341,277.206 14.514 C 277.203 14.687,276.795 14.606,276.300 14.334 C 275.805 14.062,275.040 13.780,274.600 13.708 C 274.160 13.636,273.740 13.402,273.667 13.188 C 273.593 12.975,273.098 12.800,272.567 12.800 C 272.035 12.800,271.600 12.609,271.600 12.376 C 271.600 12.143,271.409 12.071,271.175 12.216 C 270.941 12.360,270.446 12.213,270.075 11.889 C 269.704 11.565,268.410 11.075,267.200 10.801 C 265.990 10.527,264.640 10.164,264.200 9.995 C 262.480 9.333,259.071 8.400,258.378 8.400 C 257.976 8.400,257.536 8.220,257.400 8.000 C 257.264 7.780,256.724 7.600,256.200 7.600 C 255.676 7.600,255.136 7.420,255.000 7.200 C 254.864 6.980,254.133 6.800,253.376 6.800 C 252.619 6.800,252.000 6.620,252.000 6.400 C 252.000 6.180,251.291 6.000,250.424 6.000 C 249.557 6.000,248.736 5.820,248.600 5.600 C 248.464 5.380,247.733 5.200,246.976 5.200 C 246.219 5.200,245.600 5.020,245.600 4.800 C 245.600 4.580,244.880 4.400,244.000 4.400 C 243.120 4.400,242.400 4.220,242.400 4.000 C 242.400 3.780,241.590 3.600,240.600 3.600 C 239.610 3.600,238.800 3.420,238.800 3.200 C 238.800 2.980,237.900 2.800,236.800 2.800 C 235.700 2.800,234.800 2.620,234.800 2.400 C 234.800 2.180,233.810 2.000,232.600 2.000 C 231.390 2.000,230.400 1.820,230.400 1.600 C 230.400 1.375,229.289 1.200,227.867 1.200 C 226.473 1.200,225.212 1.079,225.064 0.930 C 224.504 0.371,181.753 -0.411,181.200 0.128 M142.801 46.151 C 150.566 48.050,161.436 53.406,166.968 58.059 C 167.206 58.259,168.399 59.182,169.619 60.111 C 175.825 64.834,183.314 71.782,198.598 87.000 C 212.609 100.950,223.049 109.783,231.269 114.643 C 234.986 116.841,236.455 117.596,241.200 119.749 C 245.349 121.632,254.347 124.144,263.600 126.002 C 280.460 129.387,313.288 130.469,343.200 128.626 C 360.740 127.545,359.148 127.549,359.829 128.588 C 361.122 130.562,365.816 142.832,367.636 149.000 C 369.672 155.894,370.373 158.665,371.009 162.335 C 371.340 164.241,371.886 167.240,372.223 169.000 C 374.031 178.434,374.390 180.538,374.817 184.200 C 375.413 189.306,375.419 211.339,374.827 215.918 C 374.579 217.833,374.192 220.840,373.968 222.600 C 373.035 229.908,370.904 241.663,370.017 244.400 C 369.839 244.950,369.465 246.210,369.186 247.200 C 359.493 281.624,339.935 311.595,311.699 335.299 C 308.054 338.358,307.895 338.478,299.627 344.290 C 293.947 348.283,290.264 350.594,285.347 353.253 C 280.041 356.122,269.828 361.175,269.311 361.188 C 269.042 361.195,267.962 361.586,266.911 362.059 C 261.927 364.298,253.269 367.252,245.800 369.262 C 244.920 369.499,243.750 369.835,243.200 370.008 C 242.650 370.182,241.345 370.521,240.300 370.762 C 239.255 371.003,237.635 371.378,236.700 371.596 C 234.110 372.199,219.193 374.279,213.955 374.767 C 208.073 375.315,191.714 375.328,186.314 374.789 C 172.620 373.422,164.047 371.983,155.400 369.600 C 154.740 369.418,153.120 368.977,151.800 368.620 C 148.118 367.625,139.450 364.627,135.034 362.821 C 132.852 361.930,130.927 361.200,130.756 361.200 C 130.584 361.200,128.049 360.028,125.122 358.595 C 119.936 356.056,117.135 354.590,111.400 351.410 C 108.142 349.603,98.266 343.002,97.574 342.169 C 97.314 341.856,96.869 341.600,96.584 341.600 C 96.300 341.600,96.007 341.463,95.933 341.296 C 95.860 341.128,94.360 339.915,92.600 338.601 C 83.407 331.732,69.458 318.167,63.600 310.399 C 63.050 309.670,61.790 308.040,60.800 306.778 C 51.662 295.130,42.826 279.527,36.801 264.400 C 34.618 258.917,31.200 248.625,31.200 247.532 C 31.200 247.018,30.839 245.338,30.398 243.799 C 29.957 242.259,29.309 239.470,28.960 237.600 C 28.610 235.730,28.168 233.390,27.977 232.400 C 24.071 212.115,23.912 186.341,27.587 169.400 C 27.778 168.520,28.132 166.810,28.374 165.600 C 31.356 150.666,34.298 141.461,40.743 126.892 C 42.524 122.866,43.527 120.901,47.125 114.400 C 50.962 107.467,56.442 99.255,62.508 91.352 C 69.441 82.317,81.455 70.393,92.200 61.883 C 102.812 53.479,112.607 48.026,120.000 46.408 C 121.210 46.144,122.740 45.782,123.400 45.604 C 126.302 44.824,138.818 45.176,142.801 46.151 " stroke="none" fill="#b2b2b2" fill-rule="evenodd"></path></g></svg>